<svg xmlns="http://www.w3.org/2000/svg" version="1.1" xmlns:xlink="http://www.w3.org/1999/xlink" xmlns:svgjs="http://svgjs.dev/svgjs" width="1000" height="750" viewBox="0 0 1000 750"><rect width="1000" height="750" fill="#ffffff"></rect><g transform="matrix(0.5191111111111111,0,0,0.5191111111111111,240.4444444444445,83)"><svg viewBox="0 0 320 360" data-background-color="#ffffff" preserveAspectRatio="xMidYMid meet" height="1125" width="1000" xmlns="http://www.w3.org/2000/svg" xmlns:xlink="http://www.w3.org/1999/xlink"><defs></defs><g id="tight-bounds" transform="matrix(1,0,0,1,0,0)"><svg viewBox="0 0 320 360" height="360" width="320"><g><svg></svg></g><g><svg viewBox="0 0 320 360" height="360" width="320"><g><path d="M20.961 227.22l3.726 4.658-1.863-6.056c-0.466-2.795-3.726 0.466-1.863 1.398M25.153 224.425c1.397 2.329 2.795 4.658 2.795 6.987 0 3.261 2.795 4.658 5.123 5.589-3.261-3.726-5.124-13.974-7.918-12.576M204.017 26.929c7.918 0 15.371-0.932 23.756 0.931 20.495 5.124 37.729 15.371 49.374 29.811l32.606 52.169c1.397 13.042 4.192 27.482 3.726 43.319 3.261 0 2.795-4.658 6.521-5.59-3.726 9.316-5.59 20.961-6.521 34.469-2.329-7.453 0-18.632 0.466-24.687-3.261 5.124-5.124 1.397-5.124-0.932 0.466-3.726-1.397-3.261-2.795-4.658-5.124-4.658-8.384-9.782-12.11-17.7 2.329-6.055 2.795-14.905-4.658-19.563-2.329-1.397-5.124-3.726-6.521-7.453-1.863-5.124-5.124-11.179-4.193-19.097 0.466-2.329-6.987 5.124-11.179 1.863-18.166-12.576-36.332-27.016-58.224-39.127-11.645 0-20.029-4.192-24.221-9.316-3.726-4.658-0.932-10.713 4.658-11.179 3.261 0 6.987-0.932 9.782 0.932 0.466-1.863 2.329-4.192 4.657-4.192M157.904 16.215l0.932 0.466c4.658 0.932 6.987 7.453 12.11 5.124 0 3.261 0.466 6.521-0.466 8.85-1.397 3.726-5.59 3.726-8.85 3.726-31.208-1.863-49.374 11.179-68.471 22.358-5.124 3.261-10.713 5.59-14.906 9.782-20.029 18.632-41.921 35.866-47.045 70.335l-4.192 38.195c-0.466 4.192-5.124 8.384-4.192 13.508l3.26 22.824c-3.261-3.261-5.124 0.932-4.192 2.795 0.466 1.397 2.329 6.055 5.124 1.863 3.726 6.987 7.453 20.495 12.576 26.55 15.837 18.632 36.332 35.4 53.101 52.169 4.192-0.932 7.453-0.932 8.384-3.727 1.397 2.795-1.397 5.59-3.726 6.056 7.453 4.658 15.837 8.85 27.016 9.781 14.44 0.932 27.948 3.261 40.524 6.522 6.521-1.863 13.042-2.795 20.029-3.261 2.329 0 3.726-3.726 6.521-4.658l0.466-4.658c2.795 4.192 2.329-1.397 0.466-4.192 3.261 2.795 4.192 5.124 5.589 6.987 0-1.397 3.726-6.521 3.727-0.466l0.931-6.055c1.397-0.932 1.863 5.124 3.261 0.931 1.397-4.192 4.192-0.932 6.987-2.329-0.932 1.863-0.466 5.59 2.794 3.261l3.727-3.261c2.329 5.59 6.055 3.261 7.918 2.329 20.495-13.042 40.99-28.413 60.553-43.784l-0.466 6.055 2.329-7.453c2.329 2.329 4.192 0.466 5.124-0.931 2.795-4.658 6.521-9.316 12.577-13.508-7.453 20.029-16.303 35.866-27.482 48.908l-4.658 5.59c0 3.261-0.932 7.453-4.658 7.918-1.863 0.466-5.59-0.932-8.384 1.863-1.397 1.863 3.261 5.59-0.466 2.795-3.261-2.329-6.521 0-10.248 0.932-2.795 0.932 1.863 3.726 2.795 5.589 0.932 1.863 1.863 3.726 1.398 6.056l-5.124-5.59c-6.055 3.261-9.782 9.316-14.906 13.974-2.329 1.863-1.397 5.124-1.397 7.918-3.261 0-6.987-0.932-8.85 0.932-1.397 1.863-0.932 4.658-0.932 7.453-4.658-0.466-5.124-7.453-9.315-6.056-4.192 0.932-8.85 1.397-12.577 3.727 2.795 5.59-4.658 2.329-3.726 3.26-6.987-4.192-13.042-7.453-20.495-4.658-15.837-5.124-35.4-2.795-49.84-0.931 0-2.329 0.466-4.658-0.466-5.124-0.932 2.329-3.726 1.397-3.26 1.397-8.85-6.055-17.7-9.782-27.016-14.905-8.384 0.932-16.303-3.261-18.632-5.59-6.521-6.055-13.974-2.795-20.029-4.192-13.042-3.261-17.7-16.769-19.098-26.084-0.932-4.658-4.658-6.521-6.055-6.056-6.055-19.563-15.371-37.263-22.824-55.429-1.863-4.658-1.397-9.316-1.397-14.44 2.329 0.932 4.658 0.466 4.192-2.794-2.329-15.371-7.918-27.016-13.974-38.195 3.261-15.837 3.726-34.469 11.179-48.443 6.521-12.576 18.632-19.098 27.016-29.811 2.795-3.726 2.795-8.85 5.59-12.11 9.316-9.316 18.632-19.098 28.879-27.482 4.658-3.726 10.247 0 17.234-1.397 2.329-8.384 11.645-15.837 20.495-13.508 3.726 0.932 11.179-8.85 13.508-9.782 3.726-1.397 1.863 3.726 1.863 6.987 8.85-6.987 20.961-10.713 32.14-14.906" fill="#6C63FF" data-fill-palette-color="tertiary"></path></g><g transform="matrix(1,0,0,1,64,149.95698924731184)"><svg viewBox="0 0 192 60.08602150537634" height="60.08602150537634" width="192"><g><svg viewBox="0 0 192 60.08602150537634" height="60.08602150537634" width="192"><g><svg viewBox="0 0 192 60.08602150537634" height="60.08602150537634" width="192"><g><svg viewBox="0 0 192 60.08602150537634" height="60.08602150537634" width="192"><g><svg viewBox="0 0 192 60.08602150537634" height="60.08602150537634" width="192"><g><svg viewBox="0 0 192 60.08602150537634" height="60.08602150537634" width="192"><g transform="matrix(1,0,0,1,0,0)"><svg width="192" viewBox="5.199999809265137 -37 223.1800079345703 69.8499984741211" height="60.08602150537634" data-palette-color="#6C63FF"><path d="M44.6-5.15Q44.95-4.9 44.95-4.35L44.95-4.35Q44.95-3.4 43.63-2.25 42.3-1.1 40.23-0.33 38.15 0.45 36 0.45L36 0.45Q32.8 0.45 31.08-1.45 29.35-3.35 29.35-6.95L29.35-6.95Q29.35-8.75 29.7-10.65L29.7-10.65Q26.95-5.5 22.7-2.55 18.45 0.4 14.2 0.4L14.2 0.4Q10.8 0.4 8.8-1.58 6.8-3.55 6.8-7.4L6.8-7.4Q6.8-9.75 8.1-14.5 9.4-19.25 11.65-26.45L11.65-26.45 13.25-31.7Q13.55-32.85 11.7-32.85L11.7-32.85Q10.95-32.85 9.25-32.65L9.25-32.65Q7.55-32.45 7.05-32.45L7.05-32.45Q6.1-32.45 5.65-32.8 5.2-33.15 5.2-33.95L5.2-33.95Q5.2-34.85 5.45-35.5L5.45-35.5Q5.95-35.2 6.4-35.1 6.85-35 7.8-35L7.8-35 14-35.1Q15.35-35.1 15.9-34.73 16.45-34.35 16.45-33.45L16.45-33.45Q16.45-32.6 15.85-30.53 15.25-28.45 14.1-25L14.1-25Q12.1-18.85 11.03-14.9 9.95-10.95 9.95-8.4L9.95-8.4Q9.95-5.3 11.13-3.78 12.3-2.25 15-2.25L15-2.25Q18.05-2.25 21.13-4.08 24.2-5.9 26.6-8.93 29-11.95 30.15-15.4L30.15-15.4Q32.15-21.4 34.25-28.65L34.25-28.65 34.8-30.55Q35.5-32.9 35.8-33.77 36.1-34.65 36.52-35.05 36.95-35.45 37.7-35.45L37.7-35.45Q38.7-35.45 40.25-35L40.25-35Q39.65-34.55 39.33-33.98 39-33.4 38.4-32.05L38.4-32.05Q36.55-27.7 35.23-23.28 33.9-18.85 32.85-13.85L32.85-13.85Q31.9-9.3 31.9-7.4L31.9-7.4Q31.9-4.65 33.15-3.3 34.4-1.95 37.15-1.95L37.15-1.95Q41.5-1.95 44.6-5.15L44.6-5.15ZM68.9-10.25Q69.65-9.8 69.65-8.75L69.65-8.75Q69.65-8.15 69.42-7.7 69.2-7.25 68.8-6.75L68.8-6.75Q66.35-3.8 62.4-2.23 58.45-0.65 55.02-0.18 51.6 0.3 49.45 0.3L49.45 0.3Q48.15 0.3 47.65 0.05 47.15-0.2 47.15-0.95L47.15-0.95Q47.15-1.35 47.3-1.8L47.3-1.8Q48.7-1.55 49.25-1.55L49.25-1.55Q51.75-1.55 53.4-3.43 55.05-5.3 55.97-7.93 56.9-10.55 57.85-14.4L57.85-14.4Q58-14.85 58.2-15.75L58.2-15.75Q58.2-16.4 57.17-17.35 56.15-18.3 55.45-18.3L55.45-18.3Q54.8-18.3 53.4-17.48 52-16.65 50.67-15.08 49.35-13.5 48.75-11.45L48.75-11.45Q47.3-6.35 46.27-1.95 45.25 2.45 44 8.35L44 8.35Q41.4 20.55 39.4 28.35L39.4 28.35Q39.05 29.7 38.5 30.38 37.95 31.05 37.2 31.33 36.45 31.6 34.75 31.95L34.75 31.95Q32.6 32.35 30.85 32.85L30.85 32.85 30.3 32.6Q33.1 31.35 34.4 30.2 35.7 29.05 36.35 27.38 37 25.7 38 21.7L38 21.7Q44.4-3.45 49.4-24.55L49.4-24.55Q49.5-25 49.7-25.18 49.9-25.35 50.2-25.45L50.2-25.45Q50.7-25.65 51.4-25.98 52.1-26.3 52.35-26.35L52.35-26.35Q52.5-26.3 52.8-25.9L52.8-25.9Q52.7-25.55 52.55-25.35L52.55-25.35Q52.15-24.45 50.55-18.9L50.55-18.9Q50.1-17.4 50-17.05L50-17.05Q51.35-18.6 53.22-19.8 55.1-21 56.2-21L56.2-21Q57.1-21 58.3-20.18 59.5-19.35 60.35-18.2 61.2-17.05 61.2-16.1L61.2-16.1 60.6-13.8Q59.85-10.75 59.17-8.7 58.5-6.65 57.2-4.75 55.9-2.85 53.9-1.7L53.9-1.7Q56.85-2.1 59.15-2.9 61.45-3.7 63.85-5.43 66.25-7.15 68.9-10.25L68.9-10.25ZM89.65-17.85Q89.85-17.8 90-17.55 90.15-17.3 90.15-17L90.15-17Q90.15-15.95 89.17-14.98 88.2-14 86.62-13.4 85.05-12.8 83.45-12.8L83.45-12.8Q80.95-12.8 79.17-14.1 77.4-15.4 76.9-17.75L76.9-17.75Q74.65-17.5 72.77-14.9 70.9-12.3 70.15-9.25L70.15-9.25Q70.05-8.75 69.4-6.18 68.75-3.6 68.15-0.1L68.15-0.1Q68.1 0.05 68.02 0.13 67.95 0.2 67.7 0.2L67.7 0.2Q67.35 0.2 66.65-0.1 65.95-0.4 65.95-0.75L65.95-0.75Q65.95-1.45 66.2-2.6L66.2-2.6Q69.25-16.7 70.15-20.05L70.15-20.05Q70.25-20.5 70.37-20.65 70.5-20.8 70.8-20.8L70.8-20.8Q71-20.8 71.65-20.48 72.3-20.15 72.7-19.8L72.7-19.8 71.8-16.9 71.5-15.9Q72.65-17.7 74.15-18.8 75.65-19.9 77.35-19.9L77.35-19.9Q77.85-19.9 78.35-19.8 78.85-19.7 79.05-19.55L79.05-19.55Q79.05-17.1 80.32-15.93 81.6-14.75 83.9-14.75L83.9-14.75Q85.95-14.75 87.3-15.45 88.65-16.15 89.65-17.85L89.65-17.85ZM90.39 0.35Q88.64 0.35 87.27-0.83 85.89-2 85.89-4.3L85.89-4.3Q86.64-6.7 88.49-14.95L88.49-14.95Q89.39-19 89.59-19.8L89.59-19.8Q90.24-20.9 91.39-20.9L91.39-20.9Q92.14-20.9 92.14-20.4L92.14-20.4Q91.79-19.15 91.17-16.43 90.54-13.7 90.19-12.15L90.19-12.15Q88.84-5.95 88.34-4.2L88.34-4.2Q88.34-3.05 89.02-2.43 89.69-1.8 90.79-1.8L90.79-1.8Q93.29-1.8 95.82-3.58 98.34-5.35 100.27-7.7 102.19-10.05 103.14-11.75L103.14-11.75Q103.44-11.65 103.54-11.43 103.64-11.2 103.64-10.65L103.64-10.65Q103.64-9.9 103.14-9.1L103.14-9.1Q100.44-4.85 97.09-2.25 93.74 0.35 90.39 0.35L90.39 0.35ZM92.69-27.15Q91.99-27.15 91.59-27.63 91.19-28.1 91.19-28.85L91.19-28.85Q91.19-29.85 91.84-30.68 92.49-31.5 93.49-31.5L93.49-31.5Q94.29-31.5 94.67-31 95.04-30.5 95.04-29.8L95.04-29.8Q95.04-28.8 94.37-27.98 93.69-27.15 92.69-27.15L92.69-27.15ZM103.29 0.65Q100.89 0.65 99.22-0.5 97.54-1.65 97.54-3.15L97.54-3.15Q97.54-3.95 97.99-4.45 98.44-4.95 98.99-5.05L98.99-5.05Q99.54-3.15 100.79-2.2 102.04-1.25 103.84-1.25L103.84-1.25Q106.09-1.25 107.44-2.53 108.79-3.8 108.79-5.5L108.79-5.5Q108.79-6.75 108.07-7.7 107.34-8.65 105.89-9.9L105.89-9.9Q104.29-11.3 103.52-12.33 102.74-13.35 102.74-14.8L102.74-14.8Q102.74-16.35 103.72-17.75 104.69-19.15 106.22-20 107.74-20.85 109.39-20.85L109.39-20.85Q110.84-20.85 112.07-20.23 113.29-19.6 113.29-18.55L113.29-18.55Q113.29-17.55 112.09-16.45L112.09-16.45Q111.44-17.6 110.49-18.23 109.54-18.85 108.49-18.85L108.49-18.85Q106.89-18.85 106.07-17.68 105.24-16.5 105.24-15.35L105.24-15.35Q105.24-14.4 105.89-13.65 106.54-12.9 107.94-11.75L107.94-11.75Q109.64-10.3 110.54-9.15 111.44-8 111.44-6.45L111.44-6.45Q111.44-4.8 110.37-3.15 109.29-1.5 107.42-0.43 105.54 0.65 103.29 0.65L103.29 0.65ZM139.54-11.95Q140.44-11.8 140.44-10.95L140.44-10.95Q140.44-8.95 137.86-6.28 135.29-3.6 131.79-1.68 128.29 0.25 125.94 0.25L125.94 0.25Q123.69 0.25 122.04-0.93 120.39-2.1 119.51-3.55 118.64-5 118.64-5.7L118.64-5.7Q119.44-8.55 120.39-13.6L120.39-13.6 120.94-16.4Q121.14-17.4 122.39-18.48 123.64-19.55 125.19-20.28 126.74-21 127.69-21L127.69-21Q128.44-21 129.51-20.53 130.59-20.05 131.41-19.05 132.24-18.05 132.24-16.5L132.24-16.5Q132.24-14.7 131.04-13.1 129.84-11.5 127.49-10.5 125.14-9.5 121.84-9.5L121.84-9.5 121.14-6.15Q121.14-5.7 121.66-4.65 122.19-3.6 123.36-2.75 124.54-1.9 126.34-1.9L126.34-1.9Q128.74-1.9 131.39-3.48 134.04-5.05 136.24-7.4 138.44-9.75 139.54-11.95L139.54-11.95ZM127.29-18.95Q126.69-18.95 125.74-18.45 124.79-17.95 124.01-17.2 123.24-16.45 123.09-15.8L123.09-15.8Q122.59-13.55 122.19-11.25L122.19-11.25Q126.04-11.4 127.99-12.78 129.94-14.15 129.94-15.9L129.94-15.9Q129.94-17.15 129.04-18.05 128.14-18.95 127.29-18.95L127.29-18.95ZM186.73-5.45Q186.93-4.95 186.93-4.5L186.93-4.5Q186.93-3.35 185.88-2.23 184.83-1.1 183.36-0.4 181.88 0.3 180.73 0.3L180.73 0.3Q178.13 0.3 176.96-2.88 175.78-6.05 175.13-10.6L175.13-10.6Q174.98-11.65 174.58-11.98 174.18-12.3 173.13-12.3L173.13-12.3 166.23-12.25Q164.73-12.25 162.53-12.35L162.53-12.35 161.93-11.4Q159.33-7.2 157.61-4.88 155.88-2.55 153.73-1 151.58 0.55 148.93 0.55L148.93 0.55Q147.08 0.55 145.91-0.15 144.73-0.85 144.18-1.85 143.63-2.85 143.63-3.75L143.63-3.75Q143.63-4.7 144.13-5.48 144.63-6.25 145.28-6.6L145.28-6.6Q145.28-4.45 146.31-3.13 147.33-1.8 149.28-1.8L149.28-1.8Q151.98-1.8 154.43-4.42 156.88-7.05 160.28-12.55L160.28-12.55Q157.63-12.85 157.48-13.55L157.48-13.55Q157.38-13.8 157.61-14.4 157.83-15 158.13-15.3L158.13-15.3Q158.88-15 161.58-14.65L161.58-14.65Q162.18-15.7 163.18-17.3L163.18-17.3Q171.78-31.55 174.28-35.5L174.28-35.5Q174.83-36.4 175.33-36.7 175.83-37 176.43-37L176.43-37Q177.23-37 178.08-36.75L178.08-36.75Q177.03-34.9 176.93-30.5L176.93-30.5 176.88-28.05Q176.88-22.95 177.28-16.7L177.28-16.7Q177.73-9.6 178.66-5.98 179.58-2.35 181.73-2.35L181.73-2.35Q182.78-2.35 184.16-3.23 185.53-4.1 186.73-5.45L186.73-5.45ZM169.63-14.15Q170.98-14.15 174.73-14.3L174.73-14.3Q174.63-18 174.56-22.48 174.48-26.95 174.43-30.25L174.43-30.25 174.43-31.9Q168.68-22.25 163.83-14.4L163.83-14.4Q167.08-14.15 169.63-14.15L169.63-14.15ZM212.93-17.85Q213.13-17.8 213.28-17.55 213.43-17.3 213.43-17L213.43-17Q213.43-15.95 212.46-14.98 211.48-14 209.91-13.4 208.33-12.8 206.73-12.8L206.73-12.8Q204.23-12.8 202.46-14.1 200.68-15.4 200.18-17.75L200.18-17.75Q197.93-17.5 196.06-14.9 194.18-12.3 193.43-9.25L193.43-9.25Q193.33-8.75 192.68-6.18 192.03-3.6 191.43-0.1L191.43-0.1Q191.38 0.05 191.31 0.13 191.23 0.2 190.98 0.2L190.98 0.2Q190.63 0.2 189.93-0.1 189.23-0.4 189.23-0.75L189.23-0.75Q189.23-1.45 189.48-2.6L189.48-2.6Q192.53-16.7 193.43-20.05L193.43-20.05Q193.53-20.5 193.66-20.65 193.78-20.8 194.08-20.8L194.08-20.8Q194.28-20.8 194.93-20.48 195.58-20.15 195.98-19.8L195.98-19.8 195.08-16.9 194.78-15.9Q195.93-17.7 197.43-18.8 198.93-19.9 200.63-19.9L200.63-19.9Q201.13-19.9 201.63-19.8 202.13-19.7 202.33-19.55L202.33-19.55Q202.33-17.1 203.61-15.93 204.88-14.75 207.18-14.75L207.18-14.75Q209.23-14.75 210.58-15.45 211.93-16.15 212.93-17.85L212.93-17.85ZM228.13-8.3Q228.38-7.95 228.38-7.45L228.38-7.45Q228.38-7.05 228.23-6.75 228.08-6.45 227.73-6L227.73-6Q226.43-4.45 224.1-2.93 221.78-1.4 219.23-0.45 216.68 0.5 214.78 0.5L214.78 0.5Q212.63 0.5 211.2-0.83 209.78-2.15 209.78-4.8L209.78-4.8Q209.78-8.15 212.18-17.4L212.18-17.4 206.88-17.2Q206.78-17.25 206.6-17.38 206.43-17.5 206.38-17.6L206.38-17.6Q206.53-17.85 206.93-18.6 207.33-19.35 207.63-19.65L207.63-19.65 212.78-19.6Q214.43-25.7 216.58-32.15L216.58-32.15Q217.48-32.85 218.88-33.68 220.28-34.5 220.58-34.5L220.58-34.5Q221.03-34.3 221.13-33.95L221.13-33.95Q220.23-33.6 219.73-33.02 219.23-32.45 218.73-31.15L218.73-31.15Q217.28-27.45 215.23-19.6L215.23-19.6 227.98-19.55 228.03-18.75Q228.03-18.35 227.88-18.2 227.73-18.05 227.18-18L227.18-18Q226.48-17.95 214.68-17.5L214.68-17.5Q212.38-8.1 212.38-4.95L212.38-4.95Q212.38-3.2 213.23-2.38 214.08-1.55 215.83-1.55L215.83-1.55Q220.93-1.55 228.13-8.3L228.13-8.3Z" opacity="1" transform="matrix(1,0,0,1,0,0)" fill="#6C63FF" class="undefined-text-0" data-fill-palette-color="primary" id="text-0"></path></svg></g></svg></g></svg></g></svg></g><g></g></svg></g></svg></g></svg></g></svg></g></svg><rect width="320" height="360" fill="none" stroke="none" visibility="hidden"></rect></g></svg></g></svg>